<?xml version="1.0" standalone="no"?>
<!DOCTYPE svg PUBLIC "-//W3C//DTD SVG 20010904//EN"
 "http://www.w3.org/TR/2001/REC-SVG-20010904/DTD/svg10.dtd">
<svg version="1.0" xmlns="http://www.w3.org/2000/svg"
 width="225.000000pt" height="225.000000pt" viewBox="0 0 225.000000 225.000000"
 preserveAspectRatio="xMidYMid meet">

<g transform="translate(0.000000,225.000000) scale(0.100000,-0.100000)"
fill="#000000" stroke="none">
<path d="M1030 2175 c-8 -2 -49 -9 -90 -15 -363 -59 -688 -336 -809 -689 -131
-383 -37 -800 246 -1085 163 -165 364 -267 590 -301 125 -19 204 -19 322 0
344 56 630 268 781 580 168 345 138 744 -81 1060 -164 238 -419 396 -709 440
-84 13 -208 18 -250 10z m429 -773 c144 -150 261 -275 261 -278 0 -7 -520
-549 -531 -552 -5 -2 -9 71 -9 177 l0 181 -325 0 -325 0 0 185 0 185 325 0
325 0 0 191 c0 112 4 189 9 187 5 -1 127 -126 270 -276z"/>
</g>
</svg>
